<svg xmlns="http://www.w3.org/2000/svg" viewBox="0 0 200 200" fill="none" stroke="currentColor" stroke-width="0.6" stroke-linecap="round" stroke-linejoin="round">
  <circle cx="100" cy="100" r="78" stroke-width="0.8"/>
  <line x1="100" y1="22" x2="100" y2="178"/>
  <line x1="22" y1="100" x2="178" y2="100"/>
  <line x1="45" y1="45" x2="155" y2="155"/>
  <line x1="155" y1="45" x2="45" y2="155"/>
  <line x1="100" y1="22" x2="138" y2="100"/>
  <line x1="100" y1="22" x2="62" y2="100"/>
  <line x1="100" y1="178" x2="138" y2="100"/>
  <line x1="100" y1="178" x2="62" y2="100"/>
  <line x1="22" y1="100" x2="100" y2="62"/>
  <line x1="22" y1="100" x2="100" y2="138"/>
  <line x1="178" y1="100" x2="100" y2="62"/>
  <line x1="178" y1="100" x2="100" y2="138"/>
  <line x1="56" y1="35" x2="144" y2="165"/>
  <line x1="144" y1="35" x2="56" y2="165"/>
  <line x1="35" y1="56" x2="165" y2="144"/>
  <line x1="35" y1="144" x2="165" y2="56"/>
  <circle cx="100" cy="100" r="32" stroke-width="0.7"/>
  <circle cx="100" cy="100" r="3" fill="currentColor" stroke="none"/>
</svg>
