<svg xmlns="http://www.w3.org/2000/svg" viewBox="0 0 24 24" fill="none" stroke="currentColor" stroke-width="1.5" stroke-linecap="round" stroke-linejoin="round">
  <path d="M9 11 L9 4.5 C9 3.7, 9.7 3, 10.5 3 C11.3 3, 12 3.7, 12 4.5 L12 10"/>
  <path d="M12 10 L12 3.5 C12 2.7, 12.7 2, 13.5 2 C14.3 2, 15 2.7, 15 3.5 L15 11"/>
  <path d="M15 11 L15 4.5 C15 3.7, 15.7 3, 16.5 3 C17.3 3, 18 3.7, 18 4.5 L18 13"/>
  <path d="M9 11 L9 7 C9 6.2, 8.3 5.5, 7.5 5.5 C6.7 5.5, 6 6.2, 6 7 L6 15 C6 18.3, 8.7 21, 12 21 L14 21 C17.3 21, 20 18.3, 20 15 L20 12"/>
</svg>
